<svg xmlns="http://www.w3.org/2000/svg" height="35" viewBox="0 0 150 76.36666615804036"
     class="editor-view__logo-preview pr-7" data-v-8d8ae3dd="" data-v-b0ffd048="">
    <svg id="mark" viewBox="0 0 90 45.81999969482422" width="150" height="76.36666615804036"
         style="fill: rgb(207, 216, 220);" x="0" y="0" data-v-8d8ae3dd="">
        <rect x="0" y="0" width="100%" height="100%" fill="none"></rect>
        <g>
            <title xmlns="http://www.w3.org/2000/svg">01</title>
            <path xmlns="http://www.w3.org/2000/svg"
                  d="M94,61.24l-.08-.07a29.13,29.13,0,0,0-2.73-1.7h0l-2.28-1.19h0c-.6-.3-1.18-.57-1.77-.83h0a16.66,16.66,0,0,1-2.25-1.25l-2.1-1.51A46.35,46.35,0,0,1,79,51.38l-1.79-1.84c-.75-.79-1.46-1.59-2.13-2.37s-1.16-1.32-1.85-2h0L71,42.9h0c-1.57-1.54-2.91-2.74-3.26-3.06-2-5.6-7.36-9.81-15-11.87A25.82,25.82,0,0,0,35,29.61c-1.69.84-11.12,2.77-16.18,3.73a36.62,36.62,0,0,1-4-3.14A.68.68,0,0,0,14,30c-.27.09-1,.34-1.42,5.85a7.58,7.58,0,0,0-.87.92,11.75,11.75,0,0,0-1,1.47v0h0l-.67,1.43h0v0a11.29,11.29,0,0,0-.45,1.42A8.24,8.24,0,0,1,6,46.49a4.11,4.11,0,0,0-.82.69c-.38.48-.26,1.32.32,2.14a4.37,4.37,0,0,0,3.57,1.81,5.34,5.34,0,0,0,1.76-.31,24.22,24.22,0,0,1,4.35-.94c.54.6,3.16,3.69,1.68,5.55-.49.61-1,1.22-1.52,1.81-1.56,1.81-2.9,3.36-2.9,4.61,0,1.42,1.71,5.52,3.36,5.52a1.37,1.37,0,0,0,1.16-.6c.62-.88.41-2.4,0-3.52l-.06-.17c-.54-1.51-.75-2.08,2-3.18,2.2-.9,4.66-2.24,5.05-4.79a7.38,7.38,0,0,1,1,1.53c.71,1.71-.91,10.09-1.75,11.94-.36.79-1.49,1.24-2.4,1.61s-1.8.72-1.8,1.47c0,.55.61,1,1.72,1.16a7.42,7.42,0,0,0,1.27.11c2.11,0,4.72-.82,5.63-3.34A29.16,29.16,0,0,1,30,64.89a27.81,27.81,0,0,0,3.71-8.51c.84-4.1,3.67-3.8,5.94-3.55l.76.07a16.46,16.46,0,0,0,.62,5.63,15.23,15.23,0,0,0,1.22,2.35c.9,1.53,1.76,3,1.11,3.94a4.22,4.22,0,0,1-3,2.07,3.17,3.17,0,0,1-.57-.18c-.74-.28-2.12-.81-2.64.48a1.74,1.74,0,0,0,.3,1.73,3.59,3.59,0,0,0,2.82,1.23,4.12,4.12,0,0,0,.51,0c2-.25,6.66-3.16,8.2-4.7.73-.73.72-2.24.7-4.15,0-2.45,0-5.22,1.54-6.49l1.57-1.23a13.7,13.7,0,0,0,1,1.44c1,1.23,4.54,5.3,8.13,5.93.27,0,.59.18.7.82.32,1.94-1.57,5.64-2.45,6.13a7.17,7.17,0,0,1-1.49.57c-.89.26-1.81.53-2,1.54,0,.33.07.79.88,1.13a8.33,8.33,0,0,0,3,.47c1.47,0,3-.3,3.57-1.08.06-.07,5.68-7.54,4-10.6-1.28-2.39-2.32-6.76-2-8.5v-.07l.63.75h0l1.57,1.72h0c1.13,1.18,2.36,2.38,3.67,3.55h0l1.8,1.55h0c1.1.92,2.13,1.72,3.07,2.39,0,0,.47.32,1.22.79h0l2.1,1.24h0a35,35,0,0,0,4.71,2.22h0l2.38.72h0a11.14,11.14,0,0,0,1.25.2l.58.06c.91.09,1.72.18,2.42.18,1.56,0,2.62-.41,3.11-2A4,4,0,0,0,94,61.24ZM87.44,65.3,86,64.87a24.16,24.16,0,0,0,2.87-5.49l1.44.75A17,17,0,0,1,87.44,65.3Zm-7-3-1.23-.72a15,15,0,0,0,3.45-5.75l1.26.91A20,20,0,0,1,80.49,62.32Zm-6.28-4.44-1-.88a15.72,15.72,0,0,0,3.88-6.25l1,1.06A21,21,0,0,1,74.21,57.89ZM14.29,31.1a39.22,39.22,0,0,0,3.37,2.61l-.28,0-.29,0A8.24,8.24,0,0,0,13.64,35,22,22,0,0,1,14.29,31.1ZM11.44,39a2.67,2.67,0,0,1,.68.35l-.34.44a1.93,1.93,0,0,0-.57-.31ZM6,47.78a2.63,2.63,0,0,1,.45-.38,2.42,2.42,0,0,1,.5.79,1.59,1.59,0,0,1-.62.53A1.38,1.38,0,0,1,6,47.78Zm4.59,2.13A3.62,3.62,0,0,1,7,49.44c.32-.2.9-.65.9-1.22a2.58,2.58,0,0,0-.68-1.39,9.1,9.1,0,0,0,3.34-5.48,10.13,10.13,0,0,1,.29-1,1.09,1.09,0,0,1,.62.44.48.48,0,0,0,.38.19h0a.48.48,0,0,0,.38-.19l1-1.24a.48.48,0,0,0,0-.63,4,4,0,0,0-1.22-.79c.18-.28.38-.56.58-.82a7.12,7.12,0,0,1,4.71-2.62l.29,0a10.93,10.93,0,0,1,4.67.83l-.67,1.18a.48.48,0,0,0,.83.47l.92-1.62c.64-.81,1.14-.73,1.3-.71.92.15,1,1.56.92,2.67a21.5,21.5,0,0,1-1,3.64.48.48,0,0,0,.89.36c.16-.39.3-.82.42-1.25a15.57,15.57,0,0,0,1.64,3.16,12.07,12.07,0,0,1-4.62,4,24.23,24.23,0,0,1-6.27,1.36A32.14,32.14,0,0,0,10.56,49.91Zm8,9.09c-3.38,1.38-3.15,2.57-2.49,4.39l.06.17a3.46,3.46,0,0,1,.11,2.65.42.42,0,0,1-.38.19c-.74,0-2.4-3.15-2.4-4.56,0-.89,1.36-2.46,2.67-4,.51-.6,1-1.21,1.55-1.84,1.69-2.11-.28-5-1.3-6.3l.35,0,1.77-.25c1,1,3,2.92,4.58,4.63a.45.45,0,0,0,0,.06C23.17,56.2,21.83,57.66,18.54,59ZM50.7,54c-2,1.56-1.92,4.72-1.9,7.25,0,1.48,0,3-.42,3.47-1.39,1.39-5.85,4.2-7.64,4.42a2.75,2.75,0,0,1-2.45-.83.8.8,0,0,1-.17-.79c.13-.32.44-.31,1.41.06a2.79,2.79,0,0,0,.91.24,5.08,5.08,0,0,0,3.76-2.49c1-1.47-.07-3.24-1.08-5A14.54,14.54,0,0,1,42,58.2a15.71,15.71,0,0,1-.56-5.26L43,53c2.74.19,6.8.48,9.3-.38l0,.06ZM66,49.85a.48.48,0,0,0-.38.31,6.09,6.09,0,0,0-.32,1.09c-.36,2.16.87,6.75,2.13,9.11,1.07,2-2.58,7.79-4,9.56-.37.48-1.71.77-3.25.7a4.83,4.83,0,0,1-2.44-.55c.08-.32.44-.46,1.26-.7a8,8,0,0,0,1.69-.65C62,68,64,63.84,63.64,61.58A1.79,1.79,0,0,0,62.17,60c-2.2-.39-5-2.48-7.55-5.59-2-2.47-4.06-8-4.08-8a.48.48,0,0,0-.9.33,52.07,52.07,0,0,0,2.26,5.11c-2.32.73-6.17.46-8.77.28C42.23,52,41.47,52,41,52c-.32,0-.73,0-1.17-.09-2.23-.24-6-.64-7,4.32a26.65,26.65,0,0,1-3.6,8.22,29.87,29.87,0,0,0-2.46,4.84,4.22,4.22,0,0,1-3.46,2.59,5.8,5.8,0,0,1-3.22-.24,5.93,5.93,0,0,1,1.13-.53c1.07-.43,2.4-1,2.92-2.1.76-1.67,2.69-10.5,1.77-12.71-.68-1.63-4.66-5.54-6.22-7a15.34,15.34,0,0,0,3.57-1,13,13,0,0,0,5.22-4.6.48.48,0,0,0,0-.54,16.1,16.1,0,0,1-2.17-4.52v0c.09-.4.15-.73.18-.92.22-2.82-.81-3.59-1.71-3.74a2.16,2.16,0,0,0-2,.8,17.12,17.12,0,0,0-2.2-.7c4-.78,13.1-2.62,14.9-3.52a24.82,24.82,0,0,1,17.1-1.57c7.38,2,12.5,6,14.4,11.38a.48.48,0,0,0,.13.2s1.43,1.26,3.17,3c0,1.43-.48,4.12-3,7.55-.27-.32-.53-.64-.79-1A.48.48,0,0,0,66,49.85Zm2.81,2.9-.93-1a15.4,15.4,0,0,0,3.25-7.38l1.26,1.28C72.05,48.41,70,51.29,68.8,52.75Zm4.42-6.25c.42.45.8.88,1.15,1.29.62.72,1.28,1.46,2,2.2a15.11,15.11,0,0,1-3.86,6.38c-1.06-1-2.07-1.94-3-2.91A17.66,17.66,0,0,0,73.22,46.5Zm1.73,12a22.19,22.19,0,0,0,3.91-6c1,1,2.06,1.89,3,2.69a14,14,0,0,1-3.48,5.85c-.54-.34-.85-.56-.85-.56C76.76,60,75.88,59.28,74.95,58.51Zm9.85-1.2a16.53,16.53,0,0,0,1.9,1l1.35.62a22.68,22.68,0,0,1-3,5.61,33.72,33.72,0,0,1-3.73-1.75A21,21,0,0,0,84.79,57.31ZM94,64.47c-.45,1.5-1.51,1.47-4.51,1.16l-.58-.06-.37,0a17.77,17.77,0,0,0,2.72-4.91c1.18.69,1.9,1.18,2.08,1.31A3,3,0,0,1,94,64.47Z"
                  transform="translate(-5 -27.09)"></path>
            <path xmlns="http://www.w3.org/2000/svg"
                  d="M21.87,46.26l.34,0c.79-.1,1.31-.2,1.37-.67a.58.58,0,0,0-.42-.61,4.85,4.85,0,0,1-1.12-.6,14,14,0,0,1-3.21-3.16,4.31,4.31,0,0,0-3.94-1.79.48.48,0,0,0-.33.18l-1.2,1.56a.48.48,0,0,0,.35.77,6.08,6.08,0,0,1,2.64.87A14.45,14.45,0,0,1,18,44C18.17,44.28,19.93,46.26,21.87,46.26Zm-7.24-5.17.57-.74A3.23,3.23,0,0,1,18,41.69a14.43,14.43,0,0,0,3.45,3.43l.25.17c-1.52-.1-3-1.86-3-1.88l0,0A14.25,14.25,0,0,0,16.91,42,6.3,6.3,0,0,0,14.63,41.09Z"
                  transform="translate(-5 -27.09)"></path>
            <circle xmlns="http://www.w3.org/2000/svg" cx="9.64" cy="17.43" r="0.96"></circle>
        </g>
    </svg>
</svg>
